<mxfile host="app.diagrams.net" modified="2022-06-14T07:49:58.460Z" agent="5.0 (Windows NT 10.0; Win64; x64) AppleWebKit/537.36 (KHTML, like Gecko) Chrome/102.0.0.0 Safari/537.36" etag="cPFU42ujF1sJmljqbK-n" version="20.0.1" type="github">
  <diagram id="Q7r8swIHk41a4yUfuRp7" name="Page-1">
    <mxGraphModel dx="1247" dy="647" grid="0" gridSize="10" guides="1" tooltips="1" connect="1" arrows="1" fold="1" page="1" pageScale="1" pageWidth="827" pageHeight="1169" math="0" shadow="0">
      <root>
        <mxCell id="0" />
        <mxCell id="1" parent="0" />
        <mxCell id="YAWuwkbSx4N-kfHfklyR-1" value="Cửa hàng bán quần áo trực tuyến Adam Store" style="rounded=0;whiteSpace=wrap;html=1;" parent="1" vertex="1">
          <mxGeometry x="401" y="88" width="279" height="37" as="geometry" />
        </mxCell>
        <mxCell id="YAWuwkbSx4N-kfHfklyR-2" value="1.0 Quản lý đơn hàng" style="rounded=0;whiteSpace=wrap;html=1;" parent="1" vertex="1">
          <mxGeometry x="84" y="180" width="160" height="31" as="geometry" />
        </mxCell>
        <mxCell id="YAWuwkbSx4N-kfHfklyR-3" value="2.0 Quản lý sản phẩm" style="rounded=0;whiteSpace=wrap;html=1;" parent="1" vertex="1">
          <mxGeometry x="299" y="180" width="160" height="31" as="geometry" />
        </mxCell>
        <mxCell id="YAWuwkbSx4N-kfHfklyR-4" value="3.0 Quản lý danh mục" style="rounded=0;whiteSpace=wrap;html=1;" parent="1" vertex="1">
          <mxGeometry x="525" y="180" width="160" height="31" as="geometry" />
        </mxCell>
        <mxCell id="YAWuwkbSx4N-kfHfklyR-5" value="4.0 Quản lý bình luận" style="rounded=0;whiteSpace=wrap;html=1;" parent="1" vertex="1">
          <mxGeometry x="747" y="180" width="160" height="31" as="geometry" />
        </mxCell>
        <mxCell id="YAWuwkbSx4N-kfHfklyR-7" value="1.1 Thêm đơn hàng" style="rounded=0;whiteSpace=wrap;html=1;" parent="1" vertex="1">
          <mxGeometry x="102" y="251" width="132" height="28" as="geometry" />
        </mxCell>
        <mxCell id="YAWuwkbSx4N-kfHfklyR-8" value="1.2 Sửa đơn hàng" style="rounded=0;whiteSpace=wrap;html=1;" parent="1" vertex="1">
          <mxGeometry x="102" y="313" width="132" height="28" as="geometry" />
        </mxCell>
        <mxCell id="YAWuwkbSx4N-kfHfklyR-9" value="1.3 Quản lý phân quyền" style="rounded=0;whiteSpace=wrap;html=1;" parent="1" vertex="1">
          <mxGeometry x="102" y="377" width="132" height="28" as="geometry" />
        </mxCell>
        <mxCell id="YAWuwkbSx4N-kfHfklyR-10" value="1.4 Quản lý thông tin thành viên" style="rounded=0;whiteSpace=wrap;html=1;" parent="1" vertex="1">
          <mxGeometry x="102" y="429.5" width="132" height="37" as="geometry" />
        </mxCell>
        <mxCell id="YAWuwkbSx4N-kfHfklyR-11" value="2.1 Thêm sản phẩm" style="rounded=0;whiteSpace=wrap;html=1;" parent="1" vertex="1">
          <mxGeometry x="320" y="251" width="132" height="28" as="geometry" />
        </mxCell>
        <mxCell id="YAWuwkbSx4N-kfHfklyR-12" value="2.2 Cập nhật phản hồi" style="rounded=0;whiteSpace=wrap;html=1;" parent="1" vertex="1">
          <mxGeometry x="320" y="313" width="132" height="28" as="geometry" />
        </mxCell>
        <mxCell id="YAWuwkbSx4N-kfHfklyR-13" value="3.1 Cập nhật tín" style="rounded=0;whiteSpace=wrap;html=1;" parent="1" vertex="1">
          <mxGeometry x="544" y="251" width="132" height="28" as="geometry" />
        </mxCell>
        <mxCell id="YAWuwkbSx4N-kfHfklyR-14" value="3.2 Cập nhật phản hồi" style="rounded=0;whiteSpace=wrap;html=1;" parent="1" vertex="1">
          <mxGeometry x="542" y="313" width="132" height="28" as="geometry" />
        </mxCell>
        <mxCell id="YAWuwkbSx4N-kfHfklyR-15" value="4.1 Thêm đơn hàng" style="rounded=0;whiteSpace=wrap;html=1;" parent="1" vertex="1">
          <mxGeometry x="764" y="251" width="132" height="28" as="geometry" />
        </mxCell>
        <mxCell id="YAWuwkbSx4N-kfHfklyR-16" value="4.2 Sửa đơn hàng" style="rounded=0;whiteSpace=wrap;html=1;" parent="1" vertex="1">
          <mxGeometry x="764" y="313" width="135" height="28" as="geometry" />
        </mxCell>
        <mxCell id="YAWuwkbSx4N-kfHfklyR-17" value="4.3 Duyệt đơn hàng" style="rounded=0;whiteSpace=wrap;html=1;" parent="1" vertex="1">
          <mxGeometry x="764" y="377" width="138" height="28" as="geometry" />
        </mxCell>
        <mxCell id="YAWuwkbSx4N-kfHfklyR-18" value="4.4 Xóa đơn hàng" style="rounded=0;whiteSpace=wrap;html=1;" parent="1" vertex="1">
          <mxGeometry x="765.5" y="434" width="135" height="28" as="geometry" />
        </mxCell>
        <mxCell id="YAWuwkbSx4N-kfHfklyR-22" value="" style="endArrow=none;html=1;rounded=0;entryX=0.477;entryY=1;entryDx=0;entryDy=0;entryPerimeter=0;" parent="1" target="YAWuwkbSx4N-kfHfklyR-1" edge="1">
          <mxGeometry width="50" height="50" relative="1" as="geometry">
            <mxPoint x="534" y="155" as="sourcePoint" />
            <mxPoint x="624" y="377" as="targetPoint" />
          </mxGeometry>
        </mxCell>
        <mxCell id="YAWuwkbSx4N-kfHfklyR-23" value="" style="endArrow=none;html=1;rounded=0;" parent="1" edge="1">
          <mxGeometry width="50" height="50" relative="1" as="geometry">
            <mxPoint x="151" y="159" as="sourcePoint" />
            <mxPoint x="828" y="155" as="targetPoint" />
          </mxGeometry>
        </mxCell>
        <mxCell id="YAWuwkbSx4N-kfHfklyR-25" value="" style="endArrow=none;html=1;rounded=0;" parent="1" edge="1">
          <mxGeometry width="50" height="50" relative="1" as="geometry">
            <mxPoint x="92" y="450" as="sourcePoint" />
            <mxPoint x="92" y="212" as="targetPoint" />
          </mxGeometry>
        </mxCell>
        <mxCell id="YAWuwkbSx4N-kfHfklyR-26" value="" style="endArrow=none;html=1;rounded=0;" parent="1" edge="1">
          <mxGeometry width="50" height="50" relative="1" as="geometry">
            <mxPoint x="754" y="449" as="sourcePoint" />
            <mxPoint x="754" y="211" as="targetPoint" />
          </mxGeometry>
        </mxCell>
        <mxCell id="YAWuwkbSx4N-kfHfklyR-27" value="" style="endArrow=none;html=1;rounded=0;" parent="1" edge="1">
          <mxGeometry width="50" height="50" relative="1" as="geometry">
            <mxPoint x="308" y="329" as="sourcePoint" />
            <mxPoint x="308" y="211" as="targetPoint" />
          </mxGeometry>
        </mxCell>
        <mxCell id="YAWuwkbSx4N-kfHfklyR-28" value="" style="endArrow=none;html=1;rounded=0;" parent="1" edge="1">
          <mxGeometry width="50" height="50" relative="1" as="geometry">
            <mxPoint x="531" y="329" as="sourcePoint" />
            <mxPoint x="531" y="211" as="targetPoint" />
          </mxGeometry>
        </mxCell>
        <mxCell id="YAWuwkbSx4N-kfHfklyR-30" value="" style="endArrow=none;html=1;rounded=0;exitX=0.419;exitY=0.032;exitDx=0;exitDy=0;exitPerimeter=0;" parent="1" source="YAWuwkbSx4N-kfHfklyR-2" edge="1">
          <mxGeometry width="50" height="50" relative="1" as="geometry">
            <mxPoint x="123" y="165" as="sourcePoint" />
            <mxPoint x="151" y="159" as="targetPoint" />
          </mxGeometry>
        </mxCell>
        <mxCell id="YAWuwkbSx4N-kfHfklyR-31" value="" style="endArrow=none;html=1;rounded=0;exitX=0.419;exitY=0.032;exitDx=0;exitDy=0;exitPerimeter=0;" parent="1" edge="1">
          <mxGeometry width="50" height="50" relative="1" as="geometry">
            <mxPoint x="378.53999999999996" y="180.00199999999995" as="sourcePoint" />
            <mxPoint x="378.5" y="158.01" as="targetPoint" />
          </mxGeometry>
        </mxCell>
        <mxCell id="YAWuwkbSx4N-kfHfklyR-33" value="" style="endArrow=none;html=1;rounded=0;exitX=0.419;exitY=0.032;exitDx=0;exitDy=0;exitPerimeter=0;" parent="1" edge="1">
          <mxGeometry width="50" height="50" relative="1" as="geometry">
            <mxPoint x="610.04" y="180.00199999999995" as="sourcePoint" />
            <mxPoint x="610" y="158.01" as="targetPoint" />
          </mxGeometry>
        </mxCell>
        <mxCell id="YAWuwkbSx4N-kfHfklyR-36" value="" style="endArrow=none;html=1;rounded=0;exitX=0.5;exitY=0;exitDx=0;exitDy=0;" parent="1" source="YAWuwkbSx4N-kfHfklyR-5" edge="1">
          <mxGeometry width="50" height="50" relative="1" as="geometry">
            <mxPoint x="574" y="428" as="sourcePoint" />
            <mxPoint x="827" y="158" as="targetPoint" />
          </mxGeometry>
        </mxCell>
        <mxCell id="YAWuwkbSx4N-kfHfklyR-42" value="" style="endArrow=none;html=1;rounded=0;entryX=0;entryY=0.5;entryDx=0;entryDy=0;" parent="1" target="YAWuwkbSx4N-kfHfklyR-15" edge="1">
          <mxGeometry width="50" height="50" relative="1" as="geometry">
            <mxPoint x="756" y="265" as="sourcePoint" />
            <mxPoint x="854" y="296" as="targetPoint" />
          </mxGeometry>
        </mxCell>
        <mxCell id="YAWuwkbSx4N-kfHfklyR-45" value="" style="endArrow=none;html=1;rounded=0;entryX=0;entryY=0.5;entryDx=0;entryDy=0;" parent="1" target="YAWuwkbSx4N-kfHfklyR-18" edge="1">
          <mxGeometry width="50" height="50" relative="1" as="geometry">
            <mxPoint x="754" y="448" as="sourcePoint" />
            <mxPoint x="854" y="296" as="targetPoint" />
          </mxGeometry>
        </mxCell>
        <mxCell id="YAWuwkbSx4N-kfHfklyR-46" value="" style="endArrow=none;html=1;rounded=0;exitX=0;exitY=0.5;exitDx=0;exitDy=0;" parent="1" source="YAWuwkbSx4N-kfHfklyR-16" edge="1">
          <mxGeometry width="50" height="50" relative="1" as="geometry">
            <mxPoint x="804" y="346" as="sourcePoint" />
            <mxPoint x="754" y="327" as="targetPoint" />
          </mxGeometry>
        </mxCell>
        <mxCell id="YAWuwkbSx4N-kfHfklyR-47" value="" style="endArrow=none;html=1;rounded=0;entryX=0;entryY=0.5;entryDx=0;entryDy=0;" parent="1" target="YAWuwkbSx4N-kfHfklyR-17" edge="1">
          <mxGeometry width="50" height="50" relative="1" as="geometry">
            <mxPoint x="754" y="391" as="sourcePoint" />
            <mxPoint x="854" y="296" as="targetPoint" />
          </mxGeometry>
        </mxCell>
        <mxCell id="YAWuwkbSx4N-kfHfklyR-48" value="" style="endArrow=none;html=1;rounded=0;entryX=0;entryY=0.5;entryDx=0;entryDy=0;" parent="1" target="YAWuwkbSx4N-kfHfklyR-13" edge="1">
          <mxGeometry width="50" height="50" relative="1" as="geometry">
            <mxPoint x="531" y="265" as="sourcePoint" />
            <mxPoint x="854" y="296" as="targetPoint" />
          </mxGeometry>
        </mxCell>
        <mxCell id="YAWuwkbSx4N-kfHfklyR-49" value="" style="endArrow=none;html=1;rounded=0;entryX=0;entryY=0.5;entryDx=0;entryDy=0;" parent="1" target="YAWuwkbSx4N-kfHfklyR-14" edge="1">
          <mxGeometry width="50" height="50" relative="1" as="geometry">
            <mxPoint x="532" y="327" as="sourcePoint" />
            <mxPoint x="854" y="296" as="targetPoint" />
          </mxGeometry>
        </mxCell>
        <mxCell id="YAWuwkbSx4N-kfHfklyR-50" value="" style="endArrow=none;html=1;rounded=0;entryX=0;entryY=0.5;entryDx=0;entryDy=0;" parent="1" target="YAWuwkbSx4N-kfHfklyR-11" edge="1">
          <mxGeometry width="50" height="50" relative="1" as="geometry">
            <mxPoint x="310" y="265" as="sourcePoint" />
            <mxPoint x="567" y="296" as="targetPoint" />
          </mxGeometry>
        </mxCell>
        <mxCell id="YAWuwkbSx4N-kfHfklyR-51" value="" style="endArrow=none;html=1;rounded=0;entryX=0;entryY=0.5;entryDx=0;entryDy=0;" parent="1" target="YAWuwkbSx4N-kfHfklyR-12" edge="1">
          <mxGeometry width="50" height="50" relative="1" as="geometry">
            <mxPoint x="309" y="327" as="sourcePoint" />
            <mxPoint x="567" y="296" as="targetPoint" />
          </mxGeometry>
        </mxCell>
        <mxCell id="YAWuwkbSx4N-kfHfklyR-53" style="edgeStyle=orthogonalEdgeStyle;rounded=0;orthogonalLoop=1;jettySize=auto;html=1;exitX=0.5;exitY=1;exitDx=0;exitDy=0;" parent="1" source="YAWuwkbSx4N-kfHfklyR-12" target="YAWuwkbSx4N-kfHfklyR-12" edge="1">
          <mxGeometry relative="1" as="geometry" />
        </mxCell>
        <mxCell id="YAWuwkbSx4N-kfHfklyR-54" value="" style="endArrow=none;html=1;rounded=0;exitX=0;exitY=0.5;exitDx=0;exitDy=0;" parent="1" source="YAWuwkbSx4N-kfHfklyR-10" edge="1">
          <mxGeometry width="50" height="50" relative="1" as="geometry">
            <mxPoint x="517" y="346" as="sourcePoint" />
            <mxPoint x="91" y="448" as="targetPoint" />
          </mxGeometry>
        </mxCell>
        <mxCell id="YAWuwkbSx4N-kfHfklyR-55" value="" style="endArrow=none;html=1;rounded=0;entryX=0;entryY=0.5;entryDx=0;entryDy=0;" parent="1" target="YAWuwkbSx4N-kfHfklyR-9" edge="1">
          <mxGeometry width="50" height="50" relative="1" as="geometry">
            <mxPoint x="92" y="391" as="sourcePoint" />
            <mxPoint x="567" y="296" as="targetPoint" />
          </mxGeometry>
        </mxCell>
        <mxCell id="YAWuwkbSx4N-kfHfklyR-56" value="" style="endArrow=none;html=1;rounded=0;entryX=0;entryY=0.5;entryDx=0;entryDy=0;" parent="1" target="YAWuwkbSx4N-kfHfklyR-7" edge="1">
          <mxGeometry width="50" height="50" relative="1" as="geometry">
            <mxPoint x="92" y="265" as="sourcePoint" />
            <mxPoint x="567" y="296" as="targetPoint" />
          </mxGeometry>
        </mxCell>
        <mxCell id="YAWuwkbSx4N-kfHfklyR-57" value="" style="endArrow=none;html=1;rounded=0;entryX=0;entryY=0.5;entryDx=0;entryDy=0;" parent="1" target="YAWuwkbSx4N-kfHfklyR-8" edge="1">
          <mxGeometry width="50" height="50" relative="1" as="geometry">
            <mxPoint x="92" y="327" as="sourcePoint" />
            <mxPoint x="567" y="296" as="targetPoint" />
          </mxGeometry>
        </mxCell>
      </root>
    </mxGraphModel>
  </diagram>
</mxfile>
